<?xml version="1.0" encoding="UTF-8"?>
<svg id="Calque_1" data-name="Calque 1" xmlns="http://www.w3.org/2000/svg" viewBox="0 0 300 300">
  <defs>
    <style>
      .cls-1 {
        fill: #1d1d1b;
        stroke-width: 0px;
      }
    </style>
  </defs>
  <g>
    <path class="cls-1" d="M110.723,218.299c20.451,0,40.902,0,61.352,0,2.926,0,5.852,0,8.778,0,6.178,0,6.188,9.602,0,9.602-20.451,0-40.902,0-61.352,0-2.926,0-5.852,0-8.778,0-6.178,0-6.188-9.602,0-9.602Z"/>
    <path class="cls-1" d="M105.765,223.097c0-2.465,1.551-5.118,4.958-5.118h70.131c3.255,0,4.958,2.578,4.958,5.124,0,2.465-1.551,5.118-4.958,5.118h-70.131c-3.255,0-4.958-2.578-4.958-5.124ZM110.723,218.619c-2.966,0-4.317,2.321-4.317,4.478,0,2.16,1.351,4.484,4.317,4.484h70.131c2.966,0,4.317-2.321,4.317-4.478,0-2.16-1.351-4.484-4.317-4.484h-70.131Z"/>
  </g>
  <g>
    <path class="cls-1" d="M190.917,143.06c3.372.683,6.745,1.366,10.118,2.05,23.731,4.808,47.461,9.616,71.191,14.423,3.673.744,6.705-2.194,5.905-5.905-2.372-11.012-6.983-21.68-13.27-31.022-10.026-14.896-25.28-27.958-44.09-28.113-9.525-.079-19.053,0-28.578,0-1.511,0-2.65.575-3.422,1.441-.83.771-1.378,1.889-1.378,3.36,0,13.046,0,26.091,0,39.137,0,2.001,1.48,4.215,3.525,4.629ZM196.994,104.095c3.2,0,6.401,0,9.601,0,4.725,0,9.451-.042,14.176,0,7.345.065,14.044,2.71,20.045,6.85,12.61,8.698,21.453,23.01,26.07,37.731-.742-.15-1.483-.301-2.225-.451-22.556-4.57-45.111-9.14-67.667-13.709,0-10.14,0-20.281,0-30.421Z"/>
    <path class="cls-1" d="M272.163,159.847l-81.309-16.473c-2.336-.473-3.781-2.934-3.781-4.943v-39.136c0-1.452.512-2.695,1.459-3.573.903-1.012,2.169-1.548,3.661-1.548,3.174,0,6.349-.009,9.525-.018,6.245-.016,12.704-.034,19.056.018,22.168.182,37.304,17.78,44.353,28.254,6.361,9.451,10.966,20.217,13.317,31.133.398,1.846-.084,3.625-1.323,4.878-.989,1.001-2.311,1.532-3.745,1.532-.397,0-.804-.041-1.214-.125ZM201.719,94.797c-3.176.008-6.352.017-9.526.017-1.304,0-2.405.462-3.205,1.355-.835.776-1.276,1.856-1.276,3.126v39.136c0,1.764,1.313,3.92,3.268,4.316l81.309,16.473c1.674.336,3.269-.11,4.376-1.231,1.084-1.097,1.504-2.663,1.153-4.294-2.334-10.837-6.907-21.525-13.223-30.91-6.979-10.369-21.953-27.791-43.828-27.971-3.167-.026-6.36-.035-9.541-.035s-6.378.009-9.507.018ZM196.931,134.83l-.257-.052v-31.003h9.92c1.574,0,3.149-.004,4.724-.01,3.1-.009,6.304-.018,9.455.01,6.862.06,13.667,2.384,20.223,6.906,11.772,8.121,21.076,21.581,26.194,37.899l.162.517-70.423-14.268ZM211.321,104.406c-1.576.005-3.151.01-4.726.01h-9.28s0,29.839,0,29.839l69.102,14c-5.109-15.95-14.251-29.092-25.782-37.047-6.45-4.448-13.134-6.733-19.866-6.792-1.571-.014-3.154-.018-4.732-.018-1.585,0-3.163.004-4.715.009Z"/>
  </g>
  <g>
    <path class="cls-1" d="M239.987,225.987c6.646-10.786,5.351-24.861-2.677-34.52-7.678-9.238-21.038-12.947-32.365-8.856-11.687,4.221-19.384,15.028-19.834,27.364-.017.19-.025.386-.022.589-.004.21.006.411.024.607.515,13.627,10.225,25.996,23.947,28.451,12.107,2.167,24.433-3.101,30.926-13.636ZM230.253,223.19c-5.448,6.652-14.712,9.136-22.755,6.071-7.76-2.957-12.662-10.509-12.806-18.695.17-9.644,6.928-17.95,16.499-19.718,8.117-1.499,16.527,2.435,20.718,9.5,4.22,7.114,3.608,16.415-1.656,22.842Z"/>
    <path class="cls-1" d="M209.006,239.939h0c-13.491-2.414-23.673-14.507-24.21-28.737-.019-.208-.03-.42-.025-.63-.004-.215.004-.423.021-.608.458-12.567,8.325-23.421,20.045-27.654,11.447-4.136,24.902-.452,32.719,8.954,8.185,9.845,9.296,24.193,2.704,34.892-5.557,9.018-15.262,14.278-25.702,14.278-1.834,0-3.692-.162-5.552-.495ZM205.054,182.912c-11.472,4.144-19.174,14.771-19.623,27.092-.015.179-.024.363-.02.568-.004.198.006.388.024.589.526,13.948,10.487,25.786,23.684,28.148h0c12.191,2.18,24.202-3.112,30.596-13.489,6.451-10.467,5.361-24.51-2.651-34.147-5.549-6.676-13.999-10.405-22.497-10.405-3.215,0-6.439.535-9.513,1.644ZM207.384,229.56c-7.753-2.955-12.861-10.408-13.012-19,.174-9.842,7.223-18.265,16.761-20.026,8.129-1.5,16.789,2.466,21.051,9.651,4.285,7.222,3.592,16.766-1.683,23.208-3.937,4.805-9.917,7.472-15.969,7.472-2.413,0-4.838-.424-7.148-1.304ZM211.25,191.163c-9.24,1.706-16.07,9.869-16.238,19.397.147,8.318,5.093,15.54,12.6,18.401,7.851,2.994,17.06.538,22.393-5.974,5.109-6.239,5.779-15.481,1.629-22.477-3.544-5.974-10.226-9.653-17.028-9.653-1.12,0-2.244.1-3.356.305Z"/>
  </g>
  <g>
    <path class="cls-1" d="M71.316,239.624c12.107,2.167,24.433-3.101,30.926-13.636,6.646-10.786,5.351-24.861-2.677-34.52-7.678-9.238-21.038-12.947-32.364-8.856-11.688,4.221-19.384,15.028-19.834,27.364-.017.19-.025.386-.022.589-.004.21.006.411.024.607.515,13.627,10.225,25.996,23.947,28.451ZM56.946,210.565c.17-9.644,6.929-17.95,16.499-19.718,8.117-1.499,16.527,2.435,20.718,9.5,4.221,7.114,3.608,16.415-1.656,22.842-5.448,6.652-14.712,9.136-22.755,6.071-7.759-2.957-12.662-10.509-12.806-18.695Z"/>
    <path class="cls-1" d="M71.26,239.939c-13.488-2.413-23.669-14.501-24.21-28.745-.019-.204-.029-.414-.025-.622-.004-.215.005-.422.021-.608.459-12.567,8.327-23.421,20.046-27.654,11.444-4.136,24.9-.453,32.719,8.954,8.185,9.845,9.296,24.193,2.704,34.892-5.557,9.018-15.262,14.278-25.702,14.278-1.835,0-3.693-.162-5.553-.495ZM67.308,182.912c-11.472,4.143-19.174,14.771-19.624,27.091-.015.179-.024.365-.02.568-.004.198.006.387.023.571l.002.018c.526,13.948,10.487,25.786,23.683,28.148,12.194,2.177,24.203-3.113,30.597-13.489,6.451-10.467,5.361-24.51-2.651-34.147-5.549-6.676-13.999-10.405-22.497-10.405-3.215,0-6.438.535-9.513,1.644ZM69.638,229.56c-7.753-2.955-12.861-10.408-13.011-19,.173-9.842,7.222-18.265,16.761-20.026,8.136-1.502,16.789,2.466,21.051,9.651,4.285,7.222,3.593,16.766-1.683,23.208-3.936,4.805-9.917,7.472-15.969,7.472-2.413,0-4.837-.424-7.148-1.304ZM73.504,191.163c-9.241,1.706-16.071,9.869-16.238,19.397.146,8.317,5.091,15.54,12.6,18.401h0c7.851,2.994,17.061.538,22.393-5.974,5.11-6.238,5.779-15.481,1.629-22.477-3.545-5.975-10.225-9.653-17.028-9.653-1.119,0-2.243.1-3.356.305Z"/>
  </g>
  <g>
    <path class="cls-1" d="M3.987,67.064c0,4.29,0,8.581,0,12.871,0,30.736,0,61.472,0,92.208,0,2.601,2.206,4.801,4.801,4.801,3.26,0,6.52,0,9.78,0,0,15.385,0,30.77,0,46.155,0,2.601,2.206,4.801,4.801,4.801,6.907,0,13.813,0,20.719,0,6.188,0,6.178-9.602,0-9.602-5.306,0-10.612,0-15.919,0,0-13.827,0-27.655,0-41.482,4.629,0,9.258,0,13.886,0,27.137,0,54.274,0,81.411,0,17.026,0,34.051,0,51.077,0,2.601,0,4.801-2.206,4.801-4.801,0-3.705,0-7.41,0-11.114,0-24.051,0-48.103,0-72.154,10.867,0,21.734,0,32.6,0,4.44,0,8.913-.173,13.293.694,8.356,1.655,16.065,5.669,22.721,10.926,15.078,11.908,25.96,29.311,32.666,47.138,3.317,8.816,5.866,18.097,6.831,27.486.505,4.914.464,9.822.464,14.751,0,9.518,0,19.037,0,28.555-13.293,0-26.585,0-39.878,0-6.188,0-6.178,9.602,0,9.602,14.893,0,29.786,0,44.679,0,2.601,0,4.801-2.206,4.801-4.801,0-12.531,0-25.063,0-37.594,0-17.397-4.408-34.283-11.596-50.062-8.306-18.234-20.854-35.696-37.844-46.732-7.81-5.074-16.621-8.419-25.906-9.345-4.433-.442-8.976-.22-13.423-.22-9.803,0-19.606,0-29.41,0,0-4.027,0-8.054,0-12.082,0-2.601-2.205-4.801-4.801-4.801-6.834,0-13.669,0-20.503,0-29.702,0-59.404,0-89.107,0-18.715,0-37.431,0-56.146,0-2.601,0-4.801,2.206-4.801,4.801ZM13.589,71.865c5.234,0,10.468,0,15.702,0,29.702,0,59.404,0,89.107,0,17.115,0,34.23,0,51.345,0,0,4.027,0,8.055,0,12.082,0,3.705,0,7.41,0,11.114,0,24.051,0,48.103,0,72.154-4.629,0-9.258,0-13.887,0-27.137,0-54.274,0-81.411,0-17.026,0-34.051,0-51.077,0-.363,0-.716.047-1.059.128-2.907,0-5.814,0-8.721,0,0-2.69,0-5.38,0-8.07,0-29.136,0-58.272,0-87.408Z"/>
    <path class="cls-1" d="M18.248,223.099v-45.834s-9.46,0-9.46,0c-2.775,0-5.12-2.345-5.12-5.121v-105.079c0-2.776,2.345-5.121,5.12-5.121h165.756c2.775,0,5.12,2.345,5.12,5.121v11.761s29.09,0,29.09,0c1.11,0,2.225-.014,3.343-.028,3.328-.04,6.768-.083,10.111.25,9.082.906,17.846,4.067,26.048,9.395,19.499,12.666,31.406,32.478,37.961,46.867,7.713,16.933,11.624,33.821,11.624,50.195v37.594c0,2.776-2.345,5.122-5.121,5.122h-44.679c-3.255,0-4.958-2.578-4.958-5.124,0-2.465,1.551-5.118,4.958-5.118h39.558s0-29.275,0-29.275c.002-4.487.005-9.127-.463-13.68-.872-8.489-3.165-17.71-6.812-27.406-5.196-13.813-15.064-33.178-32.565-46.999-7.167-5.66-14.765-9.314-22.585-10.863-3.724-.737-7.59-.717-11.327-.695-.635.003-1.269.007-1.903.007h-32.281s0,82.948,0,82.948c0,2.776-2.345,5.122-5.12,5.122H28.49s0,40.842,0,40.842h15.598c3.255,0,4.958,2.578,4.958,5.124,0,2.465-1.551,5.118-4.958,5.118h-20.719c-2.775,0-5.12-2.345-5.12-5.122ZM27.85,218.619v-42.122h146.694c2.429,0,4.48-2.052,4.48-4.482v-83.588h32.921c.633,0,1.266-.004,1.899-.007,3.77-.018,7.668-.043,11.455.708,7.92,1.568,15.61,5.265,22.858,10.988,17.617,13.912,27.542,33.389,32.767,47.277,3.668,9.748,5.973,19.022,6.851,27.566.471,4.585.468,9.242.466,13.745v29.915h-40.199c-2.966,0-4.317,2.321-4.317,4.478,0,2.16,1.351,4.484,4.317,4.484h44.679c2.429,0,4.481-2.052,4.481-4.482v-37.594c0-16.281-3.892-33.08-11.567-49.93-6.52-14.312-18.357-34.014-37.726-46.596-8.117-5.272-16.784-8.399-25.764-9.295-3.307-.33-6.728-.286-10.04-.247-1.121.014-2.239.028-3.351.028h-29.73v-12.401c0-2.429-2.051-4.481-4.48-4.481H8.788c-2.428,0-4.48,2.052-4.48,4.481v105.079c0,2.429,2.052,4.481,4.48,4.481h10.1v46.474c0,2.43,2.051,4.482,4.48,4.482h20.719c2.966,0,4.317-2.321,4.317-4.478,0-2.16-1.351-4.484-4.317-4.484h-16.238ZM13.269,71.545h156.794v95.99H23.368c-.317,0-.649.04-1.059.128h-9.041v-96.118ZM169.423,72.185H13.909s0,94.838,0,94.838l8.328.008c.385-.09.766-.136,1.132-.136h146.055s0-94.71,0-94.71Z"/>
  </g>
  <g>
    <path class="cls-1" d="M214.192,158.187c6.178,0,6.189,9.602,0,9.602-3.837,0-7.674,0-11.511,0-6.178,0-6.188-9.602,0-9.602,3.837,0,7.674,0,11.511,0Z"/>
    <path class="cls-1" d="M197.724,162.984c0-2.465,1.551-5.118,4.957-5.118h11.511c3.255,0,4.958,2.578,4.958,5.124,0,2.465-1.551,5.118-4.958,5.118h-11.511c-3.255,0-4.957-2.578-4.957-5.124ZM202.681,158.506c-2.966,0-4.317,2.321-4.317,4.478s1.351,4.484,4.317,4.484h11.511c2.966,0,4.317-2.321,4.317-4.478s-1.351-4.484-4.317-4.484h-11.511Z"/>
  </g>
</svg>