<?xml version="1.0" encoding="UTF-8"?>
<svg id="Calque_1" data-name="Calque 1" xmlns="http://www.w3.org/2000/svg" viewBox="0 0 300 300">
  <defs>
    <style>
      .cls-1 {
        fill: #fff;
        stroke-width: 0px;
      }
    </style>
  </defs>
  <path class="cls-1" d="M194.222,162.281c-4.174-1.545-8.412-2.829-12.687-3.899,29.025-12.303,48.664-41.793,48.977-73.866-.328-33.608-21.27-63.52-52.745-75.299-31.072-11.629-68.041-1.599-88.994,24.102-21.289,26.114-24.652,63.576-7.013,92.606,9.106,14.986,22.684,26.138,38.254,32.506-26.152,6.421-50.328,20.85-67.884,42.063-19.179,23.174-29.683,52.071-29.859,82.163-.058,9.933,15.376,9.945,15.434,0,.273-46.502,29.552-89.719,73.57-105.73,44.807-16.297,95.445-2.55,126.006,33.964,16.771,20.038,25.614,45.748,25.766,71.766.058,9.928,15.493,9.95,15.434,0-.314-53.512-34.062-101.792-84.261-120.375ZM100.544,125.831c-17.415-20.682-19.55-51.225-5.806-74.358,13.671-23.009,41.272-35.768,67.67-30.565,30.42,5.996,52.368,32.674,52.67,63.608-.259,26.57-16.775,51.485-42.053,60.655-25.803,9.361-54.797,1.661-72.481-19.34Z"/>
  <path class="cls-1" d="M29.949,290.623c-1.58,0-3.158-.392-4.498-1.177-2.4-1.405-3.712-3.817-3.694-6.793.176-30.046,10.823-59.341,29.977-82.487,16.761-20.253,40.386-35.076,66.66-41.858-15.567-6.703-28.363-17.78-37.074-32.117-17.605-28.974-14.77-66.427,7.054-93.196C109.627,6.926,146.46-3.047,177.948,8.734c31.912,11.944,52.746,41.688,53.079,75.778-.308,31.6-19.499,61.034-47.914,73.745,3.92,1.029,7.709,2.219,11.287,3.543h0c50.286,18.616,84.282,67.183,84.597,120.854.018,2.979-1.293,5.392-3.69,6.795-2.655,1.553-6.248,1.567-8.941.033-2.453-1.397-3.814-3.82-3.832-6.821-.156-26.494-9.264-51.865-25.647-71.438-30.486-36.426-80.894-50.016-125.435-33.811-43.525,15.83-72.955,58.127-73.232,105.249-.018,3.003-1.377,5.427-3.828,6.824-1.334.76-2.89,1.139-4.443,1.139ZM150.59,4.857c-23.306,0-46.336,10.288-61.418,28.788-21.549,26.433-24.351,63.411-6.972,92.013,8.86,14.582,22.004,25.75,38.01,32.296l1.464.599-1.536.378c-26.66,6.546-50.671,21.424-67.61,41.892-19.004,22.962-29.566,52.026-29.741,81.838-.015,2.592,1.116,4.687,3.185,5.898,2.349,1.375,5.529,1.388,7.912.031,2.118-1.207,3.293-3.314,3.309-5.936.279-47.55,29.981-90.233,73.908-106.209,44.949-16.348,95.815-2.638,126.577,34.117,16.536,19.758,25.729,45.361,25.886,72.092.015,2.619,1.192,4.727,3.312,5.935,2.383,1.356,5.564,1.346,7.912-.029,2.067-1.209,3.197-3.304,3.181-5.899-.312-53.247-34.04-101.429-83.925-119.897h0c-3.983-1.473-8.233-2.781-12.633-3.883l-1.49-.373,1.414-.6c28.798-12.206,48.355-41.702,48.664-73.396-.329-33.65-20.902-63.02-52.411-74.813-8.734-3.269-17.889-4.842-26.997-4.842ZM150.76,149.594c-19.151.001-37.871-8.304-50.609-23.431-17.394-20.657-19.801-51.478-5.854-74.953,13.857-23.322,41.908-35.994,68.212-30.807,30.455,6.003,52.781,32.965,53.084,64.109-.268,27.474-17.304,52.043-42.392,61.144-7.32,2.655-14.915,3.939-22.441,3.939ZM150.621,20.278c-22.15,0-43.842,11.937-55.441,31.458-13.727,23.103-11.36,53.436,5.757,73.763,17.468,20.746,46.365,28.457,71.912,19.189,24.687-8.956,41.45-33.139,41.714-60.177-.299-30.649-22.275-57.189-52.254-63.099-3.874-.763-7.79-1.134-11.688-1.134Z"/>
</svg>