<?xml version="1.0" encoding="UTF-8"?>
<svg id="Calque_1" data-name="Calque 1" xmlns="http://www.w3.org/2000/svg" viewBox="0 0 300 300">
  <defs>
    <style>
      .cls-1 {
        fill: #e8e8e8;
        stroke-width: 0px;
      }
    </style>
  </defs>
  <g>
    <path class="cls-1" d="M103.411,218.358c42.193,14.734,91.043.827,119.084-33.99,32.484-40.334,31.501-97.751-1.024-137.667C192.651,12.367,143.572-1.172,101.396,14.653,59.045,30.544,30.138,71.682,30.538,117.091c.4,45.388,30.114,86.336,72.873,101.267ZM95.668,34.138c38.866-20.564,86.867-9.726,114.806,23.558,24.229,29.736,27.35,72.5,7.915,105.511-19.608,33.305-59.458,51.394-97.426,43.82-38.343-7.648-68.69-39.248-74.07-78.136-5.311-38.392,14.605-76.675,48.775-94.754Z"/>
    <path class="cls-1" d="M137.995,224.677c-11.722,0-23.479-1.893-34.755-5.83-43.393-15.153-72.818-56.044-73.221-101.752-.399-45.437,28.211-86.8,71.195-102.928,41.921-15.729,91.537-2.489,120.654,32.199,15.873,19.481,24.754,43.985,25.012,69.005.259,25.179-8.258,49.798-23.981,69.321-20.622,25.603-52.608,39.984-84.903,39.984ZM103.581,217.868c41.94,14.645,90.673.737,118.51-33.826,31.862-39.562,31.432-97.184-1.022-137.015C192.234,12.677,143.096-.439,101.578,15.139,59,31.114,30.66,72.084,31.056,117.086c.399,45.272,29.545,85.773,72.526,100.782ZM138.248,209.245c-5.798,0-11.616-.557-17.386-1.708-18.974-3.784-36.15-13.295-49.67-27.503-13.585-14.278-22.165-31.936-24.812-51.069-5.346-38.642,14.364-76.934,49.046-95.283,38.344-20.29,86.896-10.328,115.446,23.683,24.459,30.017,27.658,72.656,7.965,106.107-16.732,28.421-48.252,45.771-80.588,45.774ZM95.911,34.596c-34.298,18.147-53.79,56.013-48.504,94.225,5.278,38.15,35.568,70.101,73.658,77.698,37.531,7.485,77.366-10.432,96.878-43.575,19.475-33.079,16.312-75.244-7.871-104.921-28.233-33.633-76.247-43.49-114.162-23.428h0Z"/>
  </g>
  <g>
    <path class="cls-1" d="M219.767,226.372c18.618,22.511,37.236,45.023,55.854,67.534,6.383,7.718,17.331-3.336,10.996-10.996-18.618-22.511-37.236-45.023-55.854-67.534-6.383-7.719-17.331,3.336-10.996,10.996Z"/>
    <path class="cls-1" d="M280.676,297.038c-1.874,0-3.806-.809-5.455-2.802l-55.854-67.534c-3.633-4.393-1.97-9.76,1.44-12.58,2.836-2.344,7.137-2.968,10.356.924l55.854,67.534c3.633,4.393,1.97,9.76-1.44,12.581-1.383,1.144-3.116,1.878-4.901,1.878ZM220.166,226.041l55.854,67.534c2.95,3.568,6.636,2.654,8.896.786,3.023-2.499,4.506-7.247,1.302-11.121l-55.854-67.534c-2.952-3.57-6.637-2.653-8.896-.785-3.023,2.499-4.506,7.247-1.302,11.121h0Z"/>
  </g>
  <g>
    <path class="cls-1" d="M89.116,123.923h41.759v41.759c0,10.006,15.551,10.023,15.551,0v-41.759h41.759c10.006,0,10.022-15.551,0-15.551h-41.759v-41.759c0-10.006-15.551-10.023-15.551,0v41.759h-41.759c-10.006,0-10.023,15.551,0,15.551Z"/>
    <path class="cls-1" d="M138.656,173.711c-4.124,0-8.299-2.758-8.299-8.029v-41.241h-41.241c-5.517,0-8.029-4.297-8.029-8.288,0-4.124,2.758-8.299,8.029-8.299h41.241v-41.241c0-5.517,4.297-8.029,8.288-8.029,4.124,0,8.299,2.757,8.299,8.029v41.241h41.241c5.517,0,8.029,4.297,8.029,8.288,0,4.124-2.758,8.299-8.029,8.299h-41.241v41.241c0,5.517-4.297,8.029-8.289,8.029ZM89.117,108.89c-4.804,0-6.993,3.764-6.993,7.262s2.188,7.252,6.993,7.252h42.277v42.278c0,4.804,3.764,6.993,7.262,6.993s7.252-2.188,7.252-6.993v-42.278h42.278c4.804,0,6.993-3.764,6.993-7.262s-2.188-7.252-6.993-7.252h-42.278v-42.278c0-4.804-3.764-6.992-7.262-6.992s-7.252,2.188-7.252,6.992v42.278h-42.277Z"/>
  </g>
</svg>