<?xml version="1.0" encoding="UTF-8"?>
<svg id="Calque_1" data-name="Calque 1" xmlns="http://www.w3.org/2000/svg" viewBox="0 0 300 300">
  <defs>
    <style>
      .cls-1 {
        fill: #dfdfdf;
        stroke-width: 0px;
      }
    </style>
  </defs>
  <g>
    <path class="cls-1" d="M51.908,241.416c-.204-20.312-.408-40.623-.612-60.934-.325-32.357-.65-64.715-.975-97.073-.074-7.405-.149-14.809-.223-22.214-.075-7.445-11.645-7.341-11.57.116.204,20.311.408,40.623.612,60.934.325,32.357.65,64.715.975,97.072.074,7.404.149,14.809.223,22.214.075,7.445,11.645,7.341,11.57-.116Z"/>
    <path class="cls-1" d="M44.249,55.28c3.068-.031,6.195,1.99,6.234,5.912l1.81,180.221c.041,4.104-3.137,6.006-6.107,6.035-3.068.031-6.195-1.99-6.234-5.912l-1.81-180.221c-.041-4.104,3.137-6.006,6.107-6.036ZM46.179,246.677c2.599-.026,5.38-1.682,5.344-5.257l-1.81-180.221c-.036-3.575-2.853-5.174-5.455-5.148-2.599.026-5.38,1.682-5.344,5.257l1.81,180.221c.036,3.575,2.853,5.174,5.455,5.148Z"/>
  </g>
  <g>
    <path class="cls-1" d="M119.199,133.292c-6.182,4.226-12.364,8.452-18.546,12.678-3.69,2.523-3.649,7.544.1,9.991,17.213,11.231,34.426,22.463,51.638,33.694,27.435,17.902,54.871,35.803,82.306,53.705,6.298,4.109,12.595,8.218,18.893,12.328,3.743,2.442,8.697-.895,8.655-5.083-.229-22.816-.458-45.632-.687-68.449-.366-36.397-.731-72.794-1.097-109.19-.084-8.394-.169-16.789-.253-25.184-.021-2.136-.991-3.647-2.359-4.545-1.625-1.489-3.987-2.01-6.396-.362-17.005,11.626-34.011,23.252-51.016,34.878-27.08,18.513-54.159,37.026-81.239,55.539ZM248.748,58.718c.193,19.21.386,38.42.579,57.63.366,36.397.731,72.793,1.097,109.19.048,4.794.096,9.589.144,14.383-14.292-9.325-28.584-18.651-42.875-27.976-27.435-17.902-54.871-35.803-82.306-53.705-3.788-2.472-7.576-4.944-11.364-7.416,14.529-9.933,29.059-19.866,43.588-29.799,27.079-18.513,54.159-37.026,81.239-55.539,3.3-2.256,6.6-4.512,9.899-6.768Z"/>
    <path class="cls-1" d="M254.459,41.47c1.298-.013,2.561.484,3.652,1.484,1.563,1.02,2.462,2.748,2.483,4.826l2.037,202.822c.022,2.22-1.309,4.393-3.392,5.535-1.927,1.056-4.116,1.009-5.859-.126l-152.837-99.727c-1.893-1.235-2.992-3.158-3.015-5.277-.023-2.124,1.037-4.075,2.908-5.355l18.545-12.678.217.319-.217-.319L251.236,42.557c1.047-.715,2.147-1.076,3.223-1.087ZM256.403,256.134c.822-.008,1.66-.233,2.465-.674,1.837-1.007,3.012-2.911,2.992-4.851l-2.037-202.822c-.023-2.323-1.201-3.581-2.185-4.227-1.76-1.606-3.971-1.729-5.967-.366l-150.8,103.095c-1.655,1.131-2.592,2.847-2.571,4.71.02,1.856.992,3.547,2.665,4.639l152.837,99.727c.8.522,1.69.778,2.601.769ZM249.126,57.992l1.834,182.645-137.632-89.806.477-.326L249.126,57.992ZM250.174,239.204l-1.805-179.759-133.653,91.372,135.459,88.388Z"/>
  </g>
</svg>