<?xml version="1.0" encoding="UTF-8"?>
<svg id="Calque_1" data-name="Calque 1" xmlns="http://www.w3.org/2000/svg" viewBox="0 0 300 300">
  <defs>
    <style>
      .cls-1 {
        fill: #dfdfdf;
        stroke-width: 0px;
      }
    </style>
  </defs>
  <g>
    <path class="cls-1" d="M244.284,77.099v175.178c0,7.236,11.246,7.248,11.246,0V77.099c0-7.236-11.246-7.248-11.246,0Z"/>
    <path class="cls-1" d="M249.91,258.083c-2.982,0-6.002-1.994-6.002-5.806V77.098c0-3.989,3.107-5.806,5.995-5.806,2.982,0,6.002,1.994,6.002,5.806v175.179c0,3.989-3.107,5.806-5.995,5.806ZM249.903,72.041c-2.526,0-5.245,1.582-5.245,5.057v175.179c0,3.475,2.722,5.057,5.252,5.057s5.245-1.582,5.245-5.057V77.098c0-3.475-2.722-5.057-5.252-5.057Z"/>
  </g>
  <g>
    <path class="cls-1" d="M177.826,181.53c6.05-4.047,12.099-8.094,18.149-12.141,3.611-2.416,3.62-7.297,0-9.711-16.62-11.084-33.24-22.168-49.859-33.252-26.49-17.667-52.981-35.334-79.471-53-6.081-4.055-12.162-8.111-18.242-12.166-3.614-2.41-8.461.785-8.461,4.855v197.147c0,2.076.928,3.554,2.248,4.441,1.565,1.463,3.856,1.992,6.213.415,16.641-11.133,33.283-22.267,49.924-33.4,26.5-17.729,53-35.458,79.5-53.187ZM51.188,252.745V76.613c13.799,9.203,27.599,18.406,41.398,27.609,26.49,17.667,52.981,35.334,79.471,53,3.658,2.439,7.315,4.879,10.973,7.318-14.218,9.512-28.437,19.025-42.655,28.537-26.5,17.729-53,35.458-79.5,53.187-3.229,2.16-6.458,4.321-9.687,6.481Z"/>
    <path class="cls-1" d="M45.468,269.454c-1.262,0-2.485-.496-3.535-1.478-1.509-1.007-2.366-2.695-2.366-4.715V66.114c0-2.158,1.315-4.257,3.351-5.347,1.884-1.007,4.01-.941,5.693.18l147.572,98.419c1.828,1.219,2.877,3.099,2.879,5.159.002,2.064-1.048,3.95-2.879,5.176l-18.148,12.141-.208-.312.208.312-129.423,86.587c-1.024.685-2.097,1.025-3.143,1.025ZM45.674,60.797c-.799,0-1.616.21-2.403.631-1.795.96-2.955,2.8-2.955,4.685v197.147c0,2.258,1.132,3.493,2.082,4.13,1.695,1.578,3.843,1.72,5.796.414l147.572-98.728c1.619-1.083,2.547-2.742,2.545-4.552,0-1.804-.929-3.457-2.545-4.535L48.195,61.57c-.772-.515-1.635-.773-2.52-.773ZM50.813,253.447V75.912l132.891,88.628-.466.313L50.813,253.447ZM51.563,77.313v174.73l130.793-87.501L51.563,77.313Z"/>
  </g>
</svg>