<?xml version="1.0" encoding="UTF-8"?>
<svg id="Calque_1" data-name="Calque 1" xmlns="http://www.w3.org/2000/svg" viewBox="0 0 300 300">
  <defs>
    <style>
      .cls-1 {
        fill: #fff;
        stroke-width: 0px;
      }
    </style>
  </defs>
  <g>
    <path class="cls-1" d="M119.523,83.115c-9.953,0-9.97,15.469,0,15.469h58.532c9.954,0,9.97-15.469,0-15.469h-58.532Z"/>
    <path class="cls-1" d="M178.055,99.099h-58.532c-5.487,0-7.987-4.274-7.987-8.245,0-4.103,2.743-8.255,7.987-8.255h58.532c5.487,0,7.987,4.274,7.987,8.245,0,4.102-2.743,8.254-7.987,8.254ZM119.523,83.63c-4.779,0-6.955,3.744-6.955,7.224s2.176,7.214,6.955,7.214h58.532c4.779,0,6.955-3.744,6.955-7.223s-2.176-7.214-6.955-7.214h-58.532Z"/>
  </g>
  <g>
    <path class="cls-1" d="M62.387,114.828c.633-5.415,1.267-10.83,1.9-16.245h19.609c9.953,0,9.97-15.469,0-15.469h-26.439c-4.54,0-7.247,3.571-7.734,7.734-2.555,21.847-5.11,43.694-7.665,65.541-4.05,34.63-8.101,69.26-12.151,103.89-.935,7.993-1.87,15.986-2.805,23.979-.486,4.161,3.938,7.735,7.735,7.735h229.038c3.822,0,8.223-3.562,7.734-7.735-2.555-21.847-5.11-43.694-7.665-65.541-4.05-34.63-8.101-69.26-12.151-103.89-.935-7.993-1.87-15.986-2.805-23.979-.486-4.156-3.15-7.734-7.735-7.734h-25.59c-9.954,0-9.97,15.469,0,15.469h18.76c2.254,19.269,4.507,38.537,6.761,57.806,4.05,34.63,8.101,69.26,12.151,103.89.633,5.415,1.267,10.83,1.9,16.245H43.475c2.254-19.269,4.507-38.538,6.761-57.806,4.05-34.63,8.101-69.26,12.151-103.89Z"/>
    <path class="cls-1" d="M263.874,292.509H34.836c-2.284,0-4.742-1.168-6.416-3.049-1.395-1.567-2.044-3.436-1.831-5.261l22.621-193.41c.476-4.076,3.212-8.19,8.247-8.19h26.439c5.488,0,7.988,4.274,7.988,8.245,0,4.103-2.744,8.255-7.988,8.255h-19.151l-20.69,176.91h210.601l-20.69-176.91h-18.301c-5.488,0-7.988-4.274-7.988-8.245,0-4.103,2.744-8.255,7.988-8.255h25.589c4.428,0,7.665,3.214,8.247,8.19l22.621,193.41c.215,1.834-.435,3.706-1.827,5.272-1.668,1.874-4.127,3.038-6.42,3.038ZM57.456,83.63c-4.702,0-6.829,3.921-7.223,7.279l-22.621,193.41c-.179,1.53.381,3.112,1.576,4.455,1.461,1.642,3.678,2.704,5.646,2.704h229.038c1.977,0,4.193-1.057,5.649-2.693,1.195-1.342,1.753-2.929,1.574-4.467l-22.621-193.41c-.393-3.358-2.52-7.279-7.223-7.279h-25.589c-2.153,0-3.955.775-5.212,2.239-1.125,1.31-1.744,3.08-1.744,4.985,0,3.474,2.176,7.214,6.955,7.214h19.219l20.933,178.972H42.895l18.98-162.271.512.06-.512-.06,1.953-16.701h20.068c4.779,0,6.955-3.744,6.955-7.224s-2.176-7.214-6.955-7.214h-26.439Z"/>
  </g>
  <g>
    <path class="cls-1" d="M190.821,115.449c0,9.954,15.469,9.97,15.469,0v-42.019c0-5.592.286-11.31-.331-16.879-1.466-13.232-7.253-25.659-16.828-34.992C170.143,3.054,139.314-.046,117.387,15.2c-10.818,7.521-18.933,18.386-22.68,31.065-2.114,7.152-2.287,14.447-2.287,21.817v47.367c0,9.954,15.469,9.97,15.469,0v-37.527c0-14.925-.875-29.65,9.403-41.978,14.278-17.124,40.338-20.154,57.887-6.148,8.42,6.719,14.113,16.749,15.383,27.464.58,4.892.259,10.009.259,14.922v43.266Z"/>
    <path class="cls-1" d="M198.56,123.436c-4.102,0-8.255-2.744-8.255-7.987v-43.266c0-1.287.021-2.588.044-3.895.062-3.632.125-7.388-.299-10.966-1.247-10.527-6.786-20.412-15.194-27.121-17.251-13.769-42.897-11.043-57.169,6.075-9.409,11.284-9.353,24.448-9.293,38.385.005,1.086.009,2.174.009,3.263v37.527c0,5.488-4.274,7.987-8.245,7.987-4.102,0-8.255-2.744-8.255-7.987v-47.366c0-7.459.177-14.751,2.309-21.964,3.702-12.526,11.827-23.657,22.88-31.343,21.901-15.226,53.026-12.468,72.398,6.414,9.448,9.208,15.479,21.747,16.98,35.305.473,4.265.419,8.657.368,12.904-.017,1.348-.033,2.694-.033,4.031v42.019c0,5.488-4.274,7.987-8.246,7.987ZM149.576,20.392c9.159,0,18.334,2.944,25.924,9.002,8.619,6.878,14.295,17.012,15.574,27.807.432,3.648.368,7.439.307,11.105-.023,1.301-.044,2.597-.044,3.878v43.266c0,4.779,3.744,6.956,7.224,6.956s7.214-2.177,7.214-6.956v-42.019c0-1.342.017-2.691.033-4.044.051-4.216.103-8.576-.361-12.778-1.477-13.322-7.399-25.638-16.676-34.68C169.746,3.385,139.183.673,117.682,15.623c-10.861,7.552-18.846,18.486-22.481,30.788-2.093,7.081-2.267,14.292-2.267,21.672v47.366c0,4.779,3.744,6.956,7.224,6.956s7.214-2.177,7.214-6.956v-37.527c0-1.088-.005-2.174-.009-3.258-.061-14.131-.118-27.477,9.533-39.05,8.349-10.015,20.5-15.223,32.679-15.223Z"/>
  </g>
</svg>