<?xml version="1.0" encoding="UTF-8"?>
<svg id="Calque_1" data-name="Calque 1" xmlns="http://www.w3.org/2000/svg" viewBox="0 0 300 300">
  <defs>
    <style>
      .cls-1 {
        fill: #fff;
        stroke-width: 0px;
      }
    </style>
  </defs>
  <g>
    <path class="cls-1" d="M95.854,209.708c40.371,14.244,87.207,1.073,114.175-32.191,31.241-38.535,30.477-93.538-.556-131.874C181.972,12.666,135.002-.455,94.553,14.574,53.936,29.665,26.118,68.982,26.361,112.48c.243,43.478,28.58,82.794,69.492,97.228ZM89.006,33.221c37.293-19.578,83.239-9.048,109.9,22.921,23.118,28.559,25.975,69.532,7.256,101.094-18.885,31.842-57.113,49.047-93.459,41.675-36.704-7.445-65.677-37.808-70.71-75.075-4.969-36.792,14.227-73.402,47.014-90.614Z"/>
    <path class="cls-1" d="M128.963,215.869c-11.228-.036-22.485-1.886-33.275-5.692-41.519-14.649-69.579-53.909-69.824-97.694-.243-43.525,27.291-83.058,68.516-98.374,40.204-14.937,87.69-2.102,115.474,31.216,15.145,18.71,23.576,42.209,23.746,66.177.17,24.12-8.063,47.676-23.186,66.328-19.832,24.462-50.516,38.138-81.451,38.039ZM96.018,209.239c40.131,14.157,86.854.986,113.625-32.036,30.643-37.798,30.409-92.996-.556-131.249C181.571,12.961,134.541.245,94.726,15.04,53.891,30.211,26.617,69.368,26.858,112.477c.242,43.367,28.036,82.253,69.161,96.763h0ZM129.252,201.086c-5.554-.018-11.125-.57-16.649-1.69-18.164-3.684-34.587-12.847-47.494-26.499-12.969-13.718-21.134-30.66-23.61-48.995-5.002-37.032,13.997-73.65,47.275-91.12h0c36.793-19.317,83.269-9.624,110.512,23.043,23.337,28.829,26.269,69.683,7.302,101.664-16.116,27.172-46.362,43.695-77.337,43.598ZM129.457,23.892c-13.764-.044-27.57,3.128-40.22,9.769-32.91,17.277-51.698,53.489-46.753,90.108,4.938,36.56,33.854,67.259,70.317,74.654,5.458,1.107,10.974,1.652,16.461,1.671,30.633.101,60.535-16.238,76.473-43.112,18.757-31.626,15.857-72.025-7.215-100.528-17.572-21.072-43.241-32.479-69.063-32.563Z"/>
  </g>
  <g>
    <path class="cls-1" d="M207.286,217.744c17.765,21.621,35.529,43.242,53.294,64.863,6.091,7.413,16.612-3.142,10.567-10.499-17.765-21.621-35.529-43.242-53.294-64.863-6.091-7.413-16.611,3.142-10.567,10.499Z"/>
    <path class="cls-1" d="M265.43,285.629c-1.957-.006-3.785-.943-5.233-2.707l-53.294-64.863c-3.466-4.219-1.857-9.356,1.418-12.046,2.723-2.237,6.846-2.821,9.917.917l53.294,64.863c1.934,2.354,2.436,5.323,1.376,8.144-1.089,2.897-3.666,5.15-6.414,5.605-.357.059-.711.088-1.062.087ZM207.67,217.429l53.294,64.863c1.887,2.298,3.961,2.504,5.366,2.27,2.41-.399,4.679-2.398,5.647-4.975.548-1.457,1.118-4.326-1.213-7.164l-53.294-64.863c-2.817-3.429-6.35-2.562-8.519-.78-2.903,2.385-4.338,6.928-1.281,10.648h0Z"/>
  </g>
</svg>