<?xml version="1.0" encoding="UTF-8"?>
<svg id="Calque_1" data-name="Calque 1" xmlns="http://www.w3.org/2000/svg" viewBox="0 0 300 300">
  <defs>
    <style>
      .cls-1 {
        fill: none;
        font-family: FranklinGothic-Heavy, 'Franklin Gothic Heavy';
        font-size: 120.831px;
        font-weight: 800;
        stroke: #fff;
        stroke-miterlimit: 10;
        stroke-width: 5.669px;
      }

      .cls-2 {
        fill: #fff;
        stroke-width: 0px;
      }
    </style>
  </defs>
  <g>
    <path class="cls-2" d="M189.258,43.18c-.311-.102-1.515-.152-5.071,2.724-2.926,2.375-1.243,4.654.086,5.849.332.292,1.075,1.232,1.639,2.447.239.514.365,1.058.388,1.581.049,1.135-.35,2.252-1.145,3.078-.048.079-.122.133-.184.187-.493.43-1.167.792-1.167.792l-3.633,2.291c-.397.273-.727.632-.938,1.076-1.93,3.84-12.446,23.719-15.529,39.341-.4,1.985-.662,3.901-.789,5.708-.01.064-.021.116-.005.179-.011.333-.023.653-.035.973-.01.959.017,1.878.054,2.732l.007.166c.128,1.49.417,2.857.878,4.064.015.05.042.088.07.138v.013c.247.373.797.694,1.409.949.69.302,1.441.526,1.893.621.814.195,1.488.728,1.864,1.44.208.374.329.816.349,1.276l1.023,32.301c.009.204.031.42.09.609.002.051.017.102.045.151l.503.988,3.022,5.774,2.186,4.161c.041.062.069.125.11.187,2.546,4.21,6.467,9.791,9.386,13.767-.661,1.562-.568,1.354-1.229,2.916-3.899.552-9.062,1.439-9.942,2.372-1.269,1.384-1.814,5.931-1.923,6.958-1.236,2.162,9.082,4.349,14.196,1.445.4-.209,4.083-1.633,4.532-1.601,2.296.208,6.88.099,8.715-2.983,1.978-3.319-7.006-61.972-8.614-72.88-.148-1.054.281-2.082,1.122-2.719l6.065-4.556c.619-.461,1.011-1.155,1.119-1.914.837-6.068,3.615-33.804-4.073-42.853-.512-.617-.613-1.481-.196-2.164.215-.342.491-.762.888-.754,6.803.103,13.174-8.632,7.165-15.798-5.617-6.671-10.989-3.232-12.751-1.712-.024.027-.049.04-.074.054v.013c.097.162,2.177,3.638,1.055,4.006-1.085.328-2.365-2.978-2.508-3.342"/>
    <path class="cls-2" d="M115.608,45.29c-.123.372-1.216,3.744-2.318,3.477-1.14-.305.742-3.891.829-4.058v-.013c-.026-.012-.052-.025-.077-.05-1.844-1.419-7.4-4.553-12.635,2.422-5.599,7.49,1.25,15.855,8.037,15.373.395-.031.694.374.928.703.455.658.403,1.527-.074,2.172-7.17,9.464-2.846,37.002-1.671,43.013.15.751.58,1.423,1.224,1.848l6.311,4.209c.876.589,1.361,1.591,1.273,2.652-.996,10.981-6.687,70.045-4.526,73.248,2.004,2.975,6.587,2.827,8.868,2.491.446-.057,4.203,1.159,4.614,1.345,5.269,2.614,15.448-.147,14.093-2.236-.166-1.019-.965-5.529-2.309-6.84-.931-.882-6.135-1.479-10.059-1.812-.747-1.523-.643-1.32-1.39-2.842,2.692-4.133,6.295-9.925,8.602-14.271.038-.064.062-.128.1-.193l1.95-4.277,2.695-5.934.447-1.014c.025-.051.037-.103.036-.154.049-.192.059-.409.056-.614l-.784-32.307c-.006-.46.09-.908.277-1.293.335-.732.979-1.302,1.781-1.542.445-.121,1.183-.385,1.855-.726.596-.289,1.128-.64,1.353-1.026v-.013c.025-.051.05-.09.062-.141.393-1.231.605-2.613.65-4.107l-.002-.166c-.011-.855-.036-1.774-.099-2.731-.03-.319-.059-.638-.089-.969.012-.064-.001-.115-.015-.179-.227-1.798-.596-3.695-1.107-5.655-3.952-15.425-15.562-34.684-17.704-38.411-.235-.431-.584-.771-.996-1.021l-3.755-2.084s-.694-.323-1.21-.725c-.064-.05-.142-.1-.194-.176-.84-.781-1.301-1.873-1.315-3.009-.007-.523.088-1.074.299-1.6.495-1.245,1.185-2.224,1.5-2.535,1.261-1.267,2.814-3.637-.241-5.845-3.712-2.672-4.91-2.555-5.215-2.436"/>
    <polygon class="cls-2" points="150.492 2.321 153.867 11.363 163.51 10.947 155.953 16.951 159.329 25.993 151.283 20.662 143.727 26.666 146.311 17.367 138.265 12.036 147.908 11.62 150.492 2.321"/>
  </g>
  <text class="cls-1" transform="translate(10.479 267.973)"><tspan x="0" y="0">oppa</tspan></text>
</svg>